# street_lamp.obj — процедурно сгенерированный фонарный столб
# (основание + столб + рычаг + корпус плафона + рассеиватель)
# Y-up, метры, основание в начале координат (0,0,0).
o StreetLamp
v 0.000000 0.000000 0.200000
v 0.000000 0.150000 0.160000
v 0.076537 0.000000 0.184776
v 0.061229 0.150000 0.147821
v 0.141421 0.000000 0.141421
v 0.113137 0.150000 0.113137
v 0.184776 0.000000 0.076537
v 0.147821 0.150000 0.061229
v 0.200000 0.000000 0.000000
v 0.160000 0.150000 0.000000
v 0.184776 0.000000 -0.076537
v 0.147821 0.150000 -0.061229
v 0.141421 0.000000 -0.141421
v 0.113137 0.150000 -0.113137
v 0.076537 0.000000 -0.184776
v 0.061229 0.150000 -0.147821
v 0.000000 0.000000 -0.200000
v 0.000000 0.150000 -0.160000
v -0.076537 0.000000 -0.184776
v -0.061229 0.150000 -0.147821
v -0.141421 0.000000 -0.141421
v -0.113137 0.150000 -0.113137
v -0.184776 0.000000 -0.076537
v -0.147821 0.150000 -0.061229
v -0.200000 0.000000 -0.000000
v -0.160000 0.150000 -0.000000
v -0.184776 0.000000 0.076537
v -0.147821 0.150000 0.061229
v -0.141421 0.000000 0.141421
v -0.113137 0.150000 0.113137
v -0.076537 0.000000 0.184776
v -0.061229 0.150000 0.147821
v -0.000000 0.000000 0.200000
v -0.000000 0.150000 0.160000
v 0.000000 0.150000 0.000000
v 0.000000 0.150000 0.160000
v 0.061229 0.150000 0.147821
v 0.061229 0.150000 0.147821
v 0.113137 0.150000 0.113137
v 0.113137 0.150000 0.113137
v 0.147821 0.150000 0.061229
v 0.147821 0.150000 0.061229
v 0.160000 0.150000 0.000000
v 0.160000 0.150000 0.000000
v 0.147821 0.150000 -0.061229
v 0.147821 0.150000 -0.061229
v 0.113137 0.150000 -0.113137
v 0.113137 0.150000 -0.113137
v 0.061229 0.150000 -0.147821
v 0.061229 0.150000 -0.147821
v 0.000000 0.150000 -0.160000
v 0.000000 0.150000 -0.160000
v -0.061229 0.150000 -0.147821
v -0.061229 0.150000 -0.147821
v -0.113137 0.150000 -0.113137
v -0.113137 0.150000 -0.113137
v -0.147821 0.150000 -0.061229
v -0.147821 0.150000 -0.061229
v -0.160000 0.150000 -0.000000
v -0.160000 0.150000 -0.000000
v -0.147821 0.150000 0.061229
v -0.147821 0.150000 0.061229
v -0.113137 0.150000 0.113137
v -0.113137 0.150000 0.113137
v -0.061229 0.150000 0.147821
v -0.061229 0.150000 0.147821
v -0.000000 0.150000 0.160000
v 0.000000 0.150000 0.075000
v 0.000000 3.200000 0.055000
v 0.028701 0.150000 0.069291
v 0.021048 3.200000 0.050813
v 0.053033 0.150000 0.053033
v 0.038891 3.200000 0.038891
v 0.069291 0.150000 0.028701
v 0.050813 3.200000 0.021048
v 0.075000 0.150000 0.000000
v 0.055000 3.200000 0.000000
v 0.069291 0.150000 -0.028701
v 0.050813 3.200000 -0.021048
v 0.053033 0.150000 -0.053033
v 0.038891 3.200000 -0.038891
v 0.028701 0.150000 -0.069291
v 0.021048 3.200000 -0.050813
v 0.000000 0.150000 -0.075000
v 0.000000 3.200000 -0.055000
v -0.028701 0.150000 -0.069291
v -0.021048 3.200000 -0.050813
v -0.053033 0.150000 -0.053033
v -0.038891 3.200000 -0.038891
v -0.069291 0.150000 -0.028701
v -0.050813 3.200000 -0.021048
v -0.075000 0.150000 -0.000000
v -0.055000 3.200000 -0.000000
v -0.069291 0.150000 0.028701
v -0.050813 3.200000 0.021048
v -0.053033 0.150000 0.053033
v -0.038891 3.200000 0.038891
v -0.028701 0.150000 0.069291
v -0.021048 3.200000 0.050813
v -0.000000 0.150000 0.075000
v -0.000000 3.200000 0.055000
v 0.000000 3.200000 0.000000
v 0.000000 3.200000 0.055000
v 0.021048 3.200000 0.050813
v 0.021048 3.200000 0.050813
v 0.038891 3.200000 0.038891
v 0.038891 3.200000 0.038891
v 0.050813 3.200000 0.021048
v 0.050813 3.200000 0.021048
v 0.055000 3.200000 0.000000
v 0.055000 3.200000 0.000000
v 0.050813 3.200000 -0.021048
v 0.050813 3.200000 -0.021048
v 0.038891 3.200000 -0.038891
v 0.038891 3.200000 -0.038891
v 0.021048 3.200000 -0.050813
v 0.021048 3.200000 -0.050813
v 0.000000 3.200000 -0.055000
v 0.000000 3.200000 -0.055000
v -0.021048 3.200000 -0.050813
v -0.021048 3.200000 -0.050813
v -0.038891 3.200000 -0.038891
v -0.038891 3.200000 -0.038891
v -0.050813 3.200000 -0.021048
v -0.050813 3.200000 -0.021048
v -0.055000 3.200000 -0.000000
v -0.055000 3.200000 -0.000000
v -0.050813 3.200000 0.021048
v -0.050813 3.200000 0.021048
v -0.038891 3.200000 0.038891
v -0.038891 3.200000 0.038891
v -0.021048 3.200000 0.050813
v -0.021048 3.200000 0.050813
v -0.000000 3.200000 0.055000
v 0.000000 3.150000 -0.050000
v 0.550000 3.350000 -0.040000
v -0.012082 3.183227 -0.035355
v 0.540334 3.376581 -0.028284
v -0.017087 3.196990 -0.000000
v 0.536330 3.387592 -0.000000
v -0.012082 3.183227 0.035355
v 0.540334 3.376581 0.028284
v -0.000000 3.150000 0.050000
v 0.550000 3.350000 0.040000
v 0.012082 3.116773 0.035355
v 0.559666 3.323419 0.028284
v 0.017087 3.103010 0.000000
v 0.563670 3.312408 0.000000
v 0.012082 3.116773 -0.035355
v 0.559666 3.323419 -0.028284
v 0.000000 3.150000 -0.050000
v 0.550000 3.350000 -0.040000
v 0.940000 3.240000 -0.120000
v 0.940000 3.240000 0.120000
v 0.940000 3.400000 0.120000
v 0.940000 3.400000 -0.120000
v 0.520000 3.240000 0.120000
v 0.520000 3.240000 -0.120000
v 0.520000 3.400000 -0.120000
v 0.520000 3.400000 0.120000
v 0.520000 3.400000 -0.120000
v 0.940000 3.400000 -0.120000
v 0.940000 3.400000 0.120000
v 0.520000 3.400000 0.120000
v 0.520000 3.240000 0.120000
v 0.940000 3.240000 0.120000
v 0.940000 3.240000 -0.120000
v 0.520000 3.240000 -0.120000
v 0.520000 3.240000 0.120000
v 0.940000 3.240000 0.120000
v 0.940000 3.400000 0.120000
v 0.520000 3.400000 0.120000
v 0.940000 3.240000 -0.120000
v 0.520000 3.240000 -0.120000
v 0.520000 3.400000 -0.120000
v 0.940000 3.400000 -0.120000
v 0.730000 3.240000 -0.160000
v 0.730000 3.150000 -0.090000
v 0.791229 3.240000 -0.147821
v 0.764442 3.150000 -0.083149
v 0.843137 3.240000 -0.113137
v 0.793640 3.150000 -0.063640
v 0.877821 3.240000 -0.061229
v 0.813149 3.150000 -0.034442
v 0.890000 3.240000 -0.000000
v 0.820000 3.150000 -0.000000
v 0.877821 3.240000 0.061229
v 0.813149 3.150000 0.034442
v 0.843137 3.240000 0.113137
v 0.793640 3.150000 0.063640
v 0.791229 3.240000 0.147821
v 0.764442 3.150000 0.083149
v 0.730000 3.240000 0.160000
v 0.730000 3.150000 0.090000
v 0.668771 3.240000 0.147821
v 0.695558 3.150000 0.083149
v 0.616863 3.240000 0.113137
v 0.666360 3.150000 0.063640
v 0.582179 3.240000 0.061229
v 0.646851 3.150000 0.034442
v 0.570000 3.240000 0.000000
v 0.640000 3.150000 0.000000
v 0.582179 3.240000 -0.061229
v 0.646851 3.150000 -0.034442
v 0.616863 3.240000 -0.113137
v 0.666360 3.150000 -0.063640
v 0.668771 3.240000 -0.147821
v 0.695558 3.150000 -0.083149
v 0.730000 3.240000 -0.160000
v 0.730000 3.150000 -0.090000
v 0.730000 3.150000 0.000000
v 0.730000 3.150000 -0.090000
v 0.764442 3.150000 -0.083149
v 0.764442 3.150000 -0.083149
v 0.793640 3.150000 -0.063640
v 0.793640 3.150000 -0.063640
v 0.813149 3.150000 -0.034442
v 0.813149 3.150000 -0.034442
v 0.820000 3.150000 -0.000000
v 0.820000 3.150000 -0.000000
v 0.813149 3.150000 0.034442
v 0.813149 3.150000 0.034442
v 0.793640 3.150000 0.063640
v 0.793640 3.150000 0.063640
v 0.764442 3.150000 0.083149
v 0.764442 3.150000 0.083149
v 0.730000 3.150000 0.090000
v 0.730000 3.150000 0.090000
v 0.695558 3.150000 0.083149
v 0.695558 3.150000 0.083149
v 0.666360 3.150000 0.063640
v 0.666360 3.150000 0.063640
v 0.646851 3.150000 0.034442
v 0.646851 3.150000 0.034442
v 0.640000 3.150000 0.000000
v 0.640000 3.150000 0.000000
v 0.646851 3.150000 -0.034442
v 0.646851 3.150000 -0.034442
v 0.666360 3.150000 -0.063640
v 0.666360 3.150000 -0.063640
v 0.695558 3.150000 -0.083149
v 0.695558 3.150000 -0.083149
v 0.730000 3.150000 -0.090000
vt 0.000000 0.000000
vt 0.000000 1.000000
vt 0.062500 0.000000
vt 0.062500 1.000000
vt 0.125000 0.000000
vt 0.125000 1.000000
vt 0.187500 0.000000
vt 0.187500 1.000000
vt 0.250000 0.000000
vt 0.250000 1.000000
vt 0.312500 0.000000
vt 0.312500 1.000000
vt 0.375000 0.000000
vt 0.375000 1.000000
vt 0.437500 0.000000
vt 0.437500 1.000000
vt 0.500000 0.000000
vt 0.500000 1.000000
vt 0.562500 0.000000
vt 0.562500 1.000000
vt 0.625000 0.000000
vt 0.625000 1.000000
vt 0.687500 0.000000
vt 0.687500 1.000000
vt 0.750000 0.000000
vt 0.750000 1.000000
vt 0.812500 0.000000
vt 0.812500 1.000000
vt 0.875000 0.000000
vt 0.875000 1.000000
vt 0.937500 0.000000
vt 0.937500 1.000000
vt 1.000000 0.000000
vt 1.000000 1.000000
vt 0.500000 0.500000
vt 1.000000 0.500000
vt 0.961940 0.691342
vt 0.961940 0.691342
vt 0.853553 0.853553
vt 0.853553 0.853553
vt 0.691342 0.961940
vt 0.691342 0.961940
vt 0.500000 1.000000
vt 0.500000 1.000000
vt 0.308658 0.961940
vt 0.308658 0.961940
vt 0.146447 0.853553
vt 0.146447 0.853553
vt 0.038060 0.691342
vt 0.038060 0.691342
vt 0.000000 0.500000
vt 0.000000 0.500000
vt 0.038060 0.308658
vt 0.038060 0.308658
vt 0.146447 0.146447
vt 0.146447 0.146447
vt 0.308658 0.038060
vt 0.308658 0.038060
vt 0.500000 0.000000
vt 0.500000 0.000000
vt 0.691342 0.038060
vt 0.691342 0.038060
vt 0.853553 0.146447
vt 0.853553 0.146447
vt 0.961940 0.308658
vt 0.961940 0.308658
vt 1.000000 0.500000
vt 0.000000 0.000000
vt 0.000000 1.000000
vt 0.062500 0.000000
vt 0.062500 1.000000
vt 0.125000 0.000000
vt 0.125000 1.000000
vt 0.187500 0.000000
vt 0.187500 1.000000
vt 0.250000 0.000000
vt 0.250000 1.000000
vt 0.312500 0.000000
vt 0.312500 1.000000
vt 0.375000 0.000000
vt 0.375000 1.000000
vt 0.437500 0.000000
vt 0.437500 1.000000
vt 0.500000 0.000000
vt 0.500000 1.000000
vt 0.562500 0.000000
vt 0.562500 1.000000
vt 0.625000 0.000000
vt 0.625000 1.000000
vt 0.687500 0.000000
vt 0.687500 1.000000
vt 0.750000 0.000000
vt 0.750000 1.000000
vt 0.812500 0.000000
vt 0.812500 1.000000
vt 0.875000 0.000000
vt 0.875000 1.000000
vt 0.937500 0.000000
vt 0.937500 1.000000
vt 1.000000 0.000000
vt 1.000000 1.000000
vt 0.500000 0.500000
vt 1.000000 0.500000
vt 0.961940 0.691342
vt 0.961940 0.691342
vt 0.853553 0.853553
vt 0.853553 0.853553
vt 0.691342 0.961940
vt 0.691342 0.961940
vt 0.500000 1.000000
vt 0.500000 1.000000
vt 0.308658 0.961940
vt 0.308658 0.961940
vt 0.146447 0.853553
vt 0.146447 0.853553
vt 0.038060 0.691342
vt 0.038060 0.691342
vt 0.000000 0.500000
vt 0.000000 0.500000
vt 0.038060 0.308658
vt 0.038060 0.308658
vt 0.146447 0.146447
vt 0.146447 0.146447
vt 0.308658 0.038060
vt 0.308658 0.038060
vt 0.500000 0.000000
vt 0.500000 0.000000
vt 0.691342 0.038060
vt 0.691342 0.038060
vt 0.853553 0.146447
vt 0.853553 0.146447
vt 0.961940 0.308658
vt 0.961940 0.308658
vt 1.000000 0.500000
vt 0.000000 0.000000
vt 0.000000 1.000000
vt 0.125000 0.000000
vt 0.125000 1.000000
vt 0.250000 0.000000
vt 0.250000 1.000000
vt 0.375000 0.000000
vt 0.375000 1.000000
vt 0.500000 0.000000
vt 0.500000 1.000000
vt 0.625000 0.000000
vt 0.625000 1.000000
vt 0.750000 0.000000
vt 0.750000 1.000000
vt 0.875000 0.000000
vt 0.875000 1.000000
vt 1.000000 0.000000
vt 1.000000 1.000000
vt 0.000000 0.000000
vt 1.000000 0.000000
vt 1.000000 1.000000
vt 0.000000 1.000000
vt 0.000000 0.000000
vt 1.000000 0.000000
vt 1.000000 1.000000
vt 0.000000 1.000000
vt 0.000000 0.000000
vt 1.000000 0.000000
vt 1.000000 1.000000
vt 0.000000 1.000000
vt 0.000000 0.000000
vt 1.000000 0.000000
vt 1.000000 1.000000
vt 0.000000 1.000000
vt 0.000000 0.000000
vt 1.000000 0.000000
vt 1.000000 1.000000
vt 0.000000 1.000000
vt 0.000000 0.000000
vt 1.000000 0.000000
vt 1.000000 1.000000
vt 0.000000 1.000000
vt 0.000000 0.000000
vt 0.000000 1.000000
vt 0.062500 0.000000
vt 0.062500 1.000000
vt 0.125000 0.000000
vt 0.125000 1.000000
vt 0.187500 0.000000
vt 0.187500 1.000000
vt 0.250000 0.000000
vt 0.250000 1.000000
vt 0.312500 0.000000
vt 0.312500 1.000000
vt 0.375000 0.000000
vt 0.375000 1.000000
vt 0.437500 0.000000
vt 0.437500 1.000000
vt 0.500000 0.000000
vt 0.500000 1.000000
vt 0.562500 0.000000
vt 0.562500 1.000000
vt 0.625000 0.000000
vt 0.625000 1.000000
vt 0.687500 0.000000
vt 0.687500 1.000000
vt 0.750000 0.000000
vt 0.750000 1.000000
vt 0.812500 0.000000
vt 0.812500 1.000000
vt 0.875000 0.000000
vt 0.875000 1.000000
vt 0.937500 0.000000
vt 0.937500 1.000000
vt 1.000000 0.000000
vt 1.000000 1.000000
vt 0.500000 0.500000
vt 1.000000 0.500000
vt 0.961940 0.691342
vt 0.961940 0.691342
vt 0.853553 0.853553
vt 0.853553 0.853553
vt 0.691342 0.961940
vt 0.691342 0.961940
vt 0.500000 1.000000
vt 0.500000 1.000000
vt 0.308658 0.961940
vt 0.308658 0.961940
vt 0.146447 0.853553
vt 0.146447 0.853553
vt 0.038060 0.691342
vt 0.038060 0.691342
vt 0.000000 0.500000
vt 0.000000 0.500000
vt 0.038060 0.308658
vt 0.038060 0.308658
vt 0.146447 0.146447
vt 0.146447 0.146447
vt 0.308658 0.038060
vt 0.308658 0.038060
vt 0.500000 0.000000
vt 0.500000 0.000000
vt 0.691342 0.038060
vt 0.691342 0.038060
vt 0.853553 0.146447
vt 0.853553 0.146447
vt 0.961940 0.308658
vt 0.961940 0.308658
vt 1.000000 0.500000
vn 0.000000 0.000000 1.000000
vn 0.000000 0.000000 1.000000
vn 0.382683 0.000000 0.923880
vn 0.382683 0.000000 0.923880
vn 0.707107 0.000000 0.707107
vn 0.707107 0.000000 0.707107
vn 0.923880 0.000000 0.382683
vn 0.923880 0.000000 0.382683
vn 1.000000 0.000000 0.000000
vn 1.000000 0.000000 0.000000
vn 0.923880 0.000000 -0.382683
vn 0.923880 0.000000 -0.382683
vn 0.707107 0.000000 -0.707107
vn 0.707107 0.000000 -0.707107
vn 0.382683 0.000000 -0.923880
vn 0.382683 0.000000 -0.923880
vn 0.000000 0.000000 -1.000000
vn 0.000000 0.000000 -1.000000
vn -0.382683 -0.000000 -0.923880
vn -0.382683 -0.000000 -0.923880
vn -0.707107 -0.000000 -0.707107
vn -0.707107 -0.000000 -0.707107
vn -0.923880 -0.000000 -0.382683
vn -0.923880 -0.000000 -0.382683
vn -1.000000 -0.000000 -0.000000
vn -1.000000 -0.000000 -0.000000
vn -0.923880 0.000000 0.382683
vn -0.923880 0.000000 0.382683
vn -0.707107 0.000000 0.707107
vn -0.707107 0.000000 0.707107
vn -0.382683 0.000000 0.923880
vn -0.382683 0.000000 0.923880
vn -0.000000 0.000000 1.000000
vn -0.000000 0.000000 1.000000
vn 0.000000 1.000000 0.000000
vn 0.000000 0.000000 1.000000
vn 0.000000 0.000000 1.000000
vn 0.382683 0.000000 0.923880
vn 0.382683 0.000000 0.923880
vn 0.707107 0.000000 0.707107
vn 0.707107 0.000000 0.707107
vn 0.923880 0.000000 0.382683
vn 0.923880 0.000000 0.382683
vn 1.000000 0.000000 0.000000
vn 1.000000 0.000000 0.000000
vn 0.923880 0.000000 -0.382683
vn 0.923880 0.000000 -0.382683
vn 0.707107 0.000000 -0.707107
vn 0.707107 0.000000 -0.707107
vn 0.382683 0.000000 -0.923880
vn 0.382683 0.000000 -0.923880
vn 0.000000 0.000000 -1.000000
vn 0.000000 0.000000 -1.000000
vn -0.382683 -0.000000 -0.923880
vn -0.382683 -0.000000 -0.923880
vn -0.707107 -0.000000 -0.707107
vn -0.707107 -0.000000 -0.707107
vn -0.923880 -0.000000 -0.382683
vn -0.923880 -0.000000 -0.382683
vn -1.000000 -0.000000 -0.000000
vn -1.000000 -0.000000 -0.000000
vn -0.923880 0.000000 0.382683
vn -0.923880 0.000000 0.382683
vn -0.707107 0.000000 0.707107
vn -0.707107 0.000000 0.707107
vn -0.382683 0.000000 0.923880
vn -0.382683 0.000000 0.923880
vn -0.000000 0.000000 1.000000
vn -0.000000 0.000000 1.000000
vn 0.000000 1.000000 0.000000
vn 0.000000 0.000000 -1.000000
vn 0.000000 0.000000 -1.000000
vn -0.241649 0.664534 -0.707107
vn -0.241649 0.664534 -0.707107
vn -0.341743 0.939793 -0.000000
vn -0.341743 0.939793 -0.000000
vn -0.241649 0.664534 0.707107
vn -0.241649 0.664534 0.707107
vn -0.000000 0.000000 1.000000
vn -0.000000 0.000000 1.000000
vn 0.241649 -0.664534 0.707107
vn 0.241649 -0.664534 0.707107
vn 0.341743 -0.939793 0.000000
vn 0.341743 -0.939793 0.000000
vn 0.241649 -0.664534 -0.707107
vn 0.241649 -0.664534 -0.707107
vn 0.000000 -0.000000 -1.000000
vn 0.000000 -0.000000 -1.000000
vn 1.000000 0.000000 0.000000
vn -1.000000 0.000000 0.000000
vn 0.000000 1.000000 0.000000
vn 0.000000 -1.000000 0.000000
vn 0.000000 0.000000 1.000000
vn 0.000000 0.000000 -1.000000
vn 0.000000 0.000000 -1.000000
vn 0.000000 0.000000 -1.000000
vn 0.382683 0.000000 -0.923880
vn 0.382683 0.000000 -0.923880
vn 0.707107 0.000000 -0.707107
vn 0.707107 0.000000 -0.707107
vn 0.923880 0.000000 -0.382683
vn 0.923880 0.000000 -0.382683
vn 1.000000 0.000000 -0.000000
vn 1.000000 0.000000 -0.000000
vn 0.923880 0.000000 0.382683
vn 0.923880 0.000000 0.382683
vn 0.707107 0.000000 0.707107
vn 0.707107 0.000000 0.707107
vn 0.382683 0.000000 0.923880
vn 0.382683 0.000000 0.923880
vn 0.000000 0.000000 1.000000
vn 0.000000 0.000000 1.000000
vn -0.382683 -0.000000 0.923880
vn -0.382683 -0.000000 0.923880
vn -0.707107 -0.000000 0.707107
vn -0.707107 -0.000000 0.707107
vn -0.923880 -0.000000 0.382683
vn -0.923880 -0.000000 0.382683
vn -1.000000 -0.000000 0.000000
vn -1.000000 -0.000000 0.000000
vn -0.923880 0.000000 -0.382683
vn -0.923880 0.000000 -0.382683
vn -0.707107 0.000000 -0.707107
vn -0.707107 0.000000 -0.707107
vn -0.382683 0.000000 -0.923880
vn -0.382683 0.000000 -0.923880
vn -0.000000 0.000000 -1.000000
vn -0.000000 0.000000 -1.000000
vn 0.000000 -1.000000 0.000000
f 1/1/1 3/3/3 4/4/4 2/2/2
f 3/3/3 5/5/5 6/6/6 4/4/4
f 5/5/5 7/7/7 8/8/8 6/6/6
f 7/7/7 9/9/9 10/10/10 8/8/8
f 9/9/9 11/11/11 12/12/12 10/10/10
f 11/11/11 13/13/13 14/14/14 12/12/12
f 13/13/13 15/15/15 16/16/16 14/14/14
f 15/15/15 17/17/17 18/18/18 16/16/16
f 17/17/17 19/19/19 20/20/20 18/18/18
f 19/19/19 21/21/21 22/22/22 20/20/20
f 21/21/21 23/23/23 24/24/24 22/22/22
f 23/23/23 25/25/25 26/26/26 24/24/24
f 25/25/25 27/27/27 28/28/28 26/26/26
f 27/27/27 29/29/29 30/30/30 28/28/28
f 29/29/29 31/31/31 32/32/32 30/30/30
f 31/31/31 33/33/33 34/34/34 32/32/32
f 35/35/35 36/36/35 37/37/35
f 35/35/35 38/38/35 39/39/35
f 35/35/35 40/40/35 41/41/35
f 35/35/35 42/42/35 43/43/35
f 35/35/35 44/44/35 45/45/35
f 35/35/35 46/46/35 47/47/35
f 35/35/35 48/48/35 49/49/35
f 35/35/35 50/50/35 51/51/35
f 35/35/35 52/52/35 53/53/35
f 35/35/35 54/54/35 55/55/35
f 35/35/35 56/56/35 57/57/35
f 35/35/35 58/58/35 59/59/35
f 35/35/35 60/60/35 61/61/35
f 35/35/35 62/62/35 63/63/35
f 35/35/35 64/64/35 65/65/35
f 35/35/35 66/66/35 67/67/35
f 68/68/36 70/70/38 71/71/39 69/69/37
f 70/70/38 72/72/40 73/73/41 71/71/39
f 72/72/40 74/74/42 75/75/43 73/73/41
f 74/74/42 76/76/44 77/77/45 75/75/43
f 76/76/44 78/78/46 79/79/47 77/77/45
f 78/78/46 80/80/48 81/81/49 79/79/47
f 80/80/48 82/82/50 83/83/51 81/81/49
f 82/82/50 84/84/52 85/85/53 83/83/51
f 84/84/52 86/86/54 87/87/55 85/85/53
f 86/86/54 88/88/56 89/89/57 87/87/55
f 88/88/56 90/90/58 91/91/59 89/89/57
f 90/90/58 92/92/60 93/93/61 91/91/59
f 92/92/60 94/94/62 95/95/63 93/93/61
f 94/94/62 96/96/64 97/97/65 95/95/63
f 96/96/64 98/98/66 99/99/67 97/97/65
f 98/98/66 100/100/68 101/101/69 99/99/67
f 102/102/70 103/103/70 104/104/70
f 102/102/70 105/105/70 106/106/70
f 102/102/70 107/107/70 108/108/70
f 102/102/70 109/109/70 110/110/70
f 102/102/70 111/111/70 112/112/70
f 102/102/70 113/113/70 114/114/70
f 102/102/70 115/115/70 116/116/70
f 102/102/70 117/117/70 118/118/70
f 102/102/70 119/119/70 120/120/70
f 102/102/70 121/121/70 122/122/70
f 102/102/70 123/123/70 124/124/70
f 102/102/70 125/125/70 126/126/70
f 102/102/70 127/127/70 128/128/70
f 102/102/70 129/129/70 130/130/70
f 102/102/70 131/131/70 132/132/70
f 102/102/70 133/133/70 134/134/70
f 135/135/71 137/137/73 138/138/74 136/136/72
f 137/137/73 139/139/75 140/140/76 138/138/74
f 139/139/75 141/141/77 142/142/78 140/140/76
f 141/141/77 143/143/79 144/144/80 142/142/78
f 143/143/79 145/145/81 146/146/82 144/144/80
f 145/145/81 147/147/83 148/148/84 146/146/82
f 147/147/83 149/149/85 150/150/86 148/148/84
f 149/149/85 151/151/87 152/152/88 150/150/86
f 153/153/89 154/154/89 155/155/89 156/156/89
f 157/157/90 158/158/90 159/159/90 160/160/90
f 161/161/91 162/162/91 163/163/91 164/164/91
f 165/165/92 166/166/92 167/167/92 168/168/92
f 169/169/93 170/170/93 171/171/93 172/172/93
f 173/173/94 174/174/94 175/175/94 176/176/94
f 177/177/95 179/179/97 180/180/98 178/178/96
f 179/179/97 181/181/99 182/182/100 180/180/98
f 181/181/99 183/183/101 184/184/102 182/182/100
f 183/183/101 185/185/103 186/186/104 184/184/102
f 185/185/103 187/187/105 188/188/106 186/186/104
f 187/187/105 189/189/107 190/190/108 188/188/106
f 189/189/107 191/191/109 192/192/110 190/190/108
f 191/191/109 193/193/111 194/194/112 192/192/110
f 193/193/111 195/195/113 196/196/114 194/194/112
f 195/195/113 197/197/115 198/198/116 196/196/114
f 197/197/115 199/199/117 200/200/118 198/198/116
f 199/199/117 201/201/119 202/202/120 200/200/118
f 201/201/119 203/203/121 204/204/122 202/202/120
f 203/203/121 205/205/123 206/206/124 204/204/122
f 205/205/123 207/207/125 208/208/126 206/206/124
f 207/207/125 209/209/127 210/210/128 208/208/126
f 211/211/129 212/212/129 213/213/129
f 211/211/129 214/214/129 215/215/129
f 211/211/129 216/216/129 217/217/129
f 211/211/129 218/218/129 219/219/129
f 211/211/129 220/220/129 221/221/129
f 211/211/129 222/222/129 223/223/129
f 211/211/129 224/224/129 225/225/129
f 211/211/129 226/226/129 227/227/129
f 211/211/129 228/228/129 229/229/129
f 211/211/129 230/230/129 231/231/129
f 211/211/129 232/232/129 233/233/129
f 211/211/129 234/234/129 235/235/129
f 211/211/129 236/236/129 237/237/129
f 211/211/129 238/238/129 239/239/129
f 211/211/129 240/240/129 241/241/129
f 211/211/129 242/242/129 243/243/129
